<svg width="257" height="86" viewBox="0 0 257 86" fill="none" xmlns="http://www.w3.org/2000/svg">
<path d="M9.5 41.4H2.5C0.833333 41.4 0 42.3667 0 44.3V63.3C0 65.2333 0.833333 66.2 2.5 66.2H9.5C11.1667 66.2 12 65.2333 12 63.3V57.7H9.1V63.2H3V44.4H9.1V49.2H12V44.3C12 42.3667 11.1667 41.4 9.5 41.4ZM26.3 63L19.7 63.2V41.4H16.8V63.6C16.8 65.4667 17.6 66.3667 19.2 66.3L22.7 66L26.2 65.5V66.2H29.1V41.4H26.3V63ZM34.2 66.2H37.1V26.4H34.2V66.2ZM46.1 33.7H43.2V41.4H40.6V44.4H43.2V63.3C43.2 65.2333 44.0333 66.2 45.7 66.2H49.9V63.2H46.1V44.4H49.9V41.4H46.1V33.7ZM63.1 63L56.5 63.2V41.4H53.6V63.6C53.6 65.4667 54.4 66.3667 56 66.3L59.5 66L63 65.5V66.2H66V41.4H63.1V63ZM79.7 41.3L76.7 41.6L73.7 42.1V41.4H70.7V66.2H73.7V44.7L79.1 44.5V49.6H82V44C82.0667 42.2 81.3 41.3 79.7 41.3ZM95.5 41.5H88.4C86.7333 41.5 85.9 42.4667 85.9 44.4V63.4C85.9 65.3333 86.7333 66.3 88.4 66.3H95.5C97.1667 66.3 98 65.3333 98 63.4V58.8H95.1V63.3H88.8V54.3H97L98 53.1V44.3C98 42.3667 97.1667 41.4 95.5 41.4V41.5ZM95.1 51.7H88.8V44.3H95.2V51.8L95.1 51.7ZM199.3 41.5H196.1L190.5 51.7V26.4H187.5V66.2H190.5V53.6L196.5 66.2H199.7L193 52.5L199.3 41.5ZM203 66.2H205.9V41.4H203V66.2ZM203 36H206V31.7H203V36ZM220.9 41.3L217.4 41.6L213.9 42.1V41.4H210.9V66.2H213.9V44.7L220.4 44.5V66.2H223.4V44C223.4 42.2 222.567 41.3 220.9 41.3ZM237.5 42.1L232.2 41.3C231.617 41.2961 231.042 41.4299 230.52 41.6905C229.999 41.9512 229.547 42.3313 229.2 42.8C228.379 43.8545 227.954 45.1641 228 46.5V60.9C227.949 62.2838 228.412 63.6376 229.3 64.7C229.703 65.1806 230.209 65.5648 230.78 65.8243C231.351 66.0839 231.973 66.2123 232.6 66.2H237.5V72.7H231.3V69.4H228.4V71.9C228.4 74.3 229.267 75.5 231 75.5H238C239.667 75.5 240.5 74.5333 240.5 72.6V41.4H237.6V42.1H237.5ZM237.5 63.2H233.4C231.8 63.2 231 62.2333 231 60.3V47.1C231 45.1667 231.8 44.2 233.4 44.2L237.5 44.5V63.2ZM255.8 55.9L248 48.6V44.4H254V49.3H256.9V44.3C256.9 42.3667 256.067 41.4 254.4 41.4H247.7C246.033 41.4 245.2 42.3667 245.2 44.3V48.4C245.186 48.8869 245.278 49.371 245.467 49.8196C245.657 50.2681 245.941 50.6707 246.3 51L254 58.3V63.2H248V57.7H245.1V63.3C245.1 65.2333 245.933 66.2 247.6 66.2H254.4C256.067 66.2 256.9 65.2333 256.9 63.3V58.6C256.934 58.1048 256.863 57.6079 256.69 57.1424C256.518 56.6769 256.249 56.2534 255.9 55.9H255.8ZM127.6 76.4C127.073 75.7436 126.666 74.9987 126.4 74.2C126.1 73.1 126.7 71.8 126.5 70.7C126.465 70.3654 126.325 70.0505 126.1 69.8L126.9 70.1L127.6 70.6C127.961 70.9504 128.265 71.3553 128.5 71.8C129.044 72.7046 129.321 73.7446 129.3 74.8C129.285 75.2455 129.146 75.678 128.898 76.0489C128.651 76.4198 128.305 76.7145 127.9 76.9L127.6 76.4ZM127.6 76.4L127.9 76.9L127.6 76.4ZM131.2 76C131.262 76.5923 131.431 77.1684 131.7 77.7C131.934 78.2036 132.319 78.6227 132.8 78.9L133.6 79.4L133.8 79.8C133.832 79.652 133.901 79.5144 134 79.4C134.283 78.8742 134.453 78.2952 134.5 77.7C134.538 77.1741 134.469 76.646 134.297 76.1476C134.125 75.6491 133.854 75.1907 133.5 74.8L132.5 73.7C132.112 73.4276 131.744 73.1268 131.4 72.8C131.441 73.2657 131.441 73.7343 131.4 74.2C131.253 74.7884 131.186 75.3938 131.2 76ZM121.1 71C121.222 71.4652 121.425 71.9052 121.7 72.3L122.1 72.8C122.5 73.3 122.9 73.1 123.2 72.6C123.342 72.4564 123.451 72.2837 123.52 72.0938C123.59 71.9039 123.617 71.7014 123.6 71.5C123.546 71.0573 123.446 70.6215 123.3 70.2C123.17 69.7211 123.003 69.253 122.8 68.8L122.2 67.4C122.062 66.9406 121.86 66.503 121.6 66.1C121.551 66.3831 121.449 66.6544 121.3 66.9C121.137 67.2894 121.003 67.6905 120.9 68.1C120.678 69.0651 120.748 70.0745 121.1 71ZM112.3 44.1L113.5 43.9C114.033 43.6613 114.512 43.3166 114.907 42.8868C115.303 42.4569 115.607 41.9511 115.8 41.4C115.987 40.8473 116.121 40.2781 116.2 39.7C116.306 39.2061 116.373 38.7045 116.4 38.2L115 39.4L113.5 40.8C112.743 41.7736 112.322 42.9667 112.3 44.2V44.1ZM115.8 57.4C115.55 58.0426 115.213 58.6481 114.8 59.2C114.492 59.6866 114.288 60.2312 114.2 60.8C114.119 61.3303 114.119 61.8697 114.2 62.4C114.247 62.9191 114.383 63.4263 114.6 63.9C115.099 63.5701 115.511 63.124 115.8 62.6C116.157 62.191 116.429 61.7153 116.601 61.2003C116.773 60.6853 116.84 60.1413 116.8 59.6C116.728 59.0856 116.594 58.5819 116.4 58.1C116.293 57.6598 116.088 57.2496 115.8 56.9C115.816 57.0997 115.816 57.3003 115.8 57.5V57.4ZM116.8 66.5C116.867 66.9964 117.038 67.4732 117.3 67.9C117.511 68.3039 117.82 68.6479 118.2 68.9C118.616 68.5111 118.985 68.0748 119.3 67.6C119.831 66.5854 119.973 65.412 119.7 64.3C119.565 63.7763 119.364 63.2722 119.1 62.8C118.97 62.3536 118.802 61.9187 118.6 61.5C118.41 62.0682 118.14 62.6067 117.8 63.1C117.359 63.6704 117.02 64.3133 116.8 65C116.686 65.5273 116.686 66.0727 116.8 66.6V66.5ZM106.5 47.6L105.7 47L104.9 46.6C104.7 46.6 104.8 47.2 104.9 47.3C105.021 47.8792 105.188 48.4477 105.4 49C105.667 49.7793 106.037 50.5192 106.5 51.2C106.979 51.8771 107.551 52.4831 108.2 53C108.705 53.3479 109.24 53.6492 109.8 53.9C109.759 53.5011 109.759 53.0989 109.8 52.7C109.789 52.464 109.756 52.2296 109.7 52L109.5 51.2C109.238 50.2673 108.759 49.4104 108.1 48.7L106.5 47.6ZM151.5 77.7C151.547 78.2952 151.717 78.8742 152 79.4C152.099 79.5144 152.168 79.652 152.2 79.8L152.4 79.4L153.2 78.9C153.681 78.6227 154.066 78.2036 154.3 77.7C154.569 77.1684 154.738 76.5923 154.8 76C154.815 75.3937 154.748 74.7882 154.6 74.2C154.56 73.7342 154.56 73.2658 154.6 72.8C154.257 73.1276 153.889 73.4285 153.5 73.7L152.5 74.8C152.133 75.2025 151.855 75.6774 151.682 76.1941C151.51 76.7108 151.448 77.2578 151.5 77.8V77.7ZM109.6 42.7C109.376 42.1786 109.108 41.6769 108.8 41.2L107.7 39.9L107.2 39.4C107.125 39.2497 107.023 39.1143 106.9 39C106.795 39.4941 106.728 39.9956 106.7 40.5C106.585 41.0262 106.518 41.5617 106.5 42.1C106.413 43.2443 106.656 44.3896 107.2 45.4C107.466 45.9091 107.842 46.353 108.3 46.7C108.585 46.95 108.929 47.1222 109.3 47.2C109.9 47.2 110.1 46.4 110.1 46C110.181 45.3991 110.147 44.7883 110 44.2C109.933 43.6846 109.799 43.1802 109.6 42.7ZM118.6 32.9C118.098 33.1002 117.627 33.3694 117.2 33.7L115.4 35C114.923 35.3944 114.517 35.868 114.2 36.4C113.873 36.9136 113.668 37.4951 113.6 38.1L114.8 37.7L116 37C116.444 36.6 116.817 36.1264 117.1 35.6C117.678 34.7457 118.18 33.8422 118.6 32.9ZM112.1 34.8C112.01 34.3544 111.876 33.9189 111.7 33.5C111.671 33.2638 111.583 33.0388 111.443 32.8463C111.303 32.6539 111.116 32.5002 110.9 32.4C110.5 32.3 110.5 33 110.4 33.3C110.329 33.7725 110.229 34.2401 110.1 34.7C109.907 35.1568 109.74 35.6242 109.6 36.1C109.491 36.626 109.458 37.1646 109.5 37.7C109.534 38.1732 109.708 38.6256 110 39C110.192 39.3675 110.512 39.6521 110.9 39.8C111.2 39.8 111.1 39 111.1 38.9C111.1 38.8 111.6 38 111.7 37.5C112.032 36.6409 112.169 35.7185 112.1 34.8ZM158.4 76.5C158.927 75.8436 159.334 75.0987 159.6 74.3C159.9 73.2 159.3 71.9 159.5 70.8C159.535 70.4654 159.675 70.1505 159.9 69.9L159.1 70.2L158.4 70.7C158.04 71.0514 157.737 71.4562 157.5 71.9C156.956 72.8046 156.679 73.8446 156.7 74.9C156.715 75.3455 156.854 75.778 157.102 76.1489C157.349 76.5198 157.695 76.8145 158.1 77L158.4 76.5ZM158.4 76.5L158.1 77L158.4 76.5ZM178 64.2L178.7 62.8C178.79 62.2745 179.034 61.7873 179.4 61.4L178.4 61.7L177.1 62.1L175.6 62.8L174.4 63.9C173.996 64.2741 173.658 64.7136 173.4 65.2L172.9 66C172.829 66.2131 172.728 66.415 172.6 66.6H174.3L175.6 66.3L176.6 65.8C177.209 65.4107 177.695 64.8557 178 64.2ZM152.6 83.4C152.916 83.926 153.414 84.3176 154 84.5C154.68 84.7222 155.386 84.8567 156.1 84.9C156.905 84.919 157.709 84.852 158.5 84.7L159.8 84.5L160.8 84.1C159.3 83.7 157.8 83.1 156.3 82.7C154.8 82.3 153.9 81.9 153.1 82.5C153.006 82.5228 152.918 82.5648 152.841 82.6233C152.764 82.6819 152.7 82.7558 152.653 82.8404C152.606 82.925 152.577 83.0184 152.568 83.1147C152.559 83.211 152.57 83.3081 152.6 83.4ZM172.8 71.4C173.754 70.8998 174.603 70.2208 175.3 69.4L176 68.6L176.7 67.9H175.3L173.5 68.3C172.86 68.513 172.254 68.8161 171.7 69.2L170.3 70.2C169.705 70.6478 169.225 71.2305 168.9 71.9H170.9L172.8 71.4ZM181.2 46.6L180.4 47L179.6 47.6L178.3 48.7C177.641 49.4104 177.162 50.2673 176.9 51.2L176.7 52C176.643 52.2294 176.61 52.4639 176.6 52.7C176.641 53.099 176.641 53.501 176.6 53.9C177.16 53.6492 177.695 53.3479 178.2 53C178.849 52.4831 179.421 51.8771 179.9 51.2C180.363 50.5192 180.733 49.7793 181 49C181.213 48.448 181.38 47.8794 181.5 47.3C181.2 47.2 181.4 46.7 181.2 46.7V46.6ZM179.5 42C179.481 41.4618 179.414 40.9263 179.3 40.4C179.272 39.8956 179.205 39.3941 179.1 38.9C178.977 39.0143 178.875 39.1497 178.8 39.3L178.3 39.8L177.2 41.1C176.891 41.5761 176.623 42.078 176.4 42.6C176.174 43.0433 176.006 43.5138 175.9 44C175.753 44.5883 175.719 45.1991 175.8 45.8C175.9 46.2 176.1 47 176.6 47C176.971 46.9222 177.315 46.75 177.6 46.5C178.058 46.153 178.434 45.7091 178.7 45.2C179.26 44.229 179.538 43.1205 179.5 42ZM104.4 54.3C104.622 54.6025 104.791 54.9407 104.9 55.3C105.1 55.6 105.4 55.8 105.5 56C105.588 56.2268 105.655 56.4611 105.7 56.7C105.829 57.2424 106.067 57.7528 106.4 58.2C106.748 58.5908 107.153 58.9278 107.6 59.2C108.492 59.8586 109.467 60.3966 110.5 60.8C110.1 59.9 110 58.9 109.5 57.9C109.17 57.1471 108.695 56.4673 108.1 55.9C107.49 55.412 106.818 55.0084 106.1 54.7H105.8C105.372 54.4574 104.892 54.3203 104.4 54.3ZM176.2 36.2C176.061 35.724 175.894 35.2566 175.7 34.8C175.572 34.3399 175.471 33.8724 175.4 33.4C175.4 33.1 175.3 32.4 174.9 32.5C174.684 32.6002 174.497 32.7538 174.357 32.9463C174.217 33.1388 174.129 33.3638 174.1 33.6C173.922 34.0184 173.788 34.454 173.7 34.9C173.519 35.8287 173.553 36.7865 173.8 37.7C173.9 38.2 174.3 38.6 174.4 39.1C174.5 39.6 174.3 40 174.6 40C174.988 39.8521 175.308 39.5675 175.5 39.2C175.792 38.8256 175.965 38.3732 176 37.9C176.152 37.3466 176.219 36.7735 176.2 36.2ZM106.6 61.5C106.966 61.8873 107.21 62.3745 107.3 62.9L108 64.3C108.307 64.8698 108.755 65.3517 109.3 65.7L110.3 66.2L111.6 66.5H113.3C113.174 66.3144 113.073 66.1126 113 65.9L112.5 65.1C112.244 64.6125 111.905 64.1728 111.5 63.8C111.137 63.3944 110.735 63.026 110.3 62.7L108.8 62L107.5 61.6L106.6 61.5ZM109.4 68L110.1 68.7L110.8 69.5C111.497 70.3208 112.346 70.9998 113.3 71.5L115.2 72.1H117.2C116.875 71.4305 116.395 70.8478 115.8 70.4L114.4 69.4C113.846 69.0161 113.24 68.713 112.6 68.5L110.8 68.1H109.4V68ZM114.1 74.6C114.348 74.5926 114.593 74.6625 114.8 74.8L115.8 75.3C116.7 75.8 117.4 76.6 118.4 77C118.999 77.2641 119.646 77.4004 120.3 77.4C120.873 77.4073 121.433 77.2322 121.9 76.9C121.988 76.816 122.058 76.7151 122.105 76.6034C122.153 76.4917 122.178 76.3715 122.178 76.25C122.178 76.1285 122.153 76.0083 122.105 75.8966C122.058 75.7849 121.988 75.684 121.9 75.6C123.294 76.7022 124.765 77.7047 126.3 78.6H124.8L122.3 79.3L119.8 79.8L122.3 80.8L123.9 81.2H125.6C126.312 81.2082 127.01 80.9988 127.6 80.6C127.777 80.4179 127.892 80.1842 127.928 79.9326C127.964 79.681 127.919 79.4245 127.8 79.2C133.7 82.3 141.5 84.4 143.2 84.4C144.9 84.4 152.7 82.3 158.6 79.2C158.481 79.4245 158.436 79.681 158.472 79.9326C158.508 80.1842 158.623 80.4179 158.8 80.6C159.39 80.9988 160.088 81.2082 160.8 81.2H162.5L164.1 80.8L166.6 79.8L164.1 79.3L161.6 78.6H160.1C161.636 77.7053 163.106 76.7027 164.5 75.6C164.412 75.684 164.342 75.7849 164.295 75.8966C164.247 76.0083 164.222 76.1285 164.222 76.25C164.222 76.3715 164.247 76.4917 164.295 76.6034C164.342 76.7151 164.412 76.816 164.5 76.9C164.967 77.2322 165.527 77.4073 166.1 77.4C166.754 77.4004 167.401 77.2641 168 77C169 76.6 169.7 75.8 170.6 75.3L171.6 74.8C171.807 74.6625 172.052 74.5926 172.3 74.6L170.5 74.4L168.9 74.2C167.882 74.0792 166.851 74.2168 165.9 74.6C169.378 71.6437 172.002 67.8114 173.5 63.5C178.4 49 173.6 35.9 172.7 33.7V32.7C172.653 32.1048 172.483 31.5258 172.2 31C171.817 30.3392 171.346 29.7336 170.8 29.2C170.201 28.6266 169.567 28.0922 168.9 27.6C168.209 27.0644 167.572 26.4615 167 25.8C167.058 26.8007 167.296 27.7828 167.7 28.7C167.9 29.2 168.1 29.7 168.3 30.1C168.6 30.586 168.97 31.0242 169.4 31.4C170.005 31.8912 170.573 32.426 171.1 33L171.9 34.1C173.761 38.7768 174.712 43.7663 174.7 48.8L174.4 48.4L173.5 47.2L172.1 45.8L171.1 44.8C171.061 45.0317 171.061 45.2683 171.1 45.5C171.086 45.7665 171.086 46.0335 171.1 46.3C171.196 46.9615 171.399 47.6032 171.7 48.2C172.267 49.5133 173.251 50.6029 174.5 51.3H174.8C174.7 52.6 174.6 53.9 174.4 55.2L173.8 54.4L172.9 53.2L171.6 52L171 51C170.739 51.4171 170.633 51.9126 170.7 52.4C170.636 52.931 170.603 53.4652 170.6 54C170.578 54.5923 170.716 55.1795 171 55.7C171.29 56.1323 171.675 56.4924 172.126 56.7525C172.576 57.0125 173.081 57.1656 173.6 57.2C173.213 59.3016 172.678 61.3734 172 63.4C166.8 78.6 145 82.6 143 82.6C141 82.6 119.1 78.6 114 63.4C113.322 61.3733 112.788 59.3015 112.4 57.2C112.919 57.1656 113.424 57.0125 113.874 56.7525C114.325 56.4924 114.71 56.1323 115 55.7C115.284 55.1795 115.422 54.5923 115.4 54C115.398 53.4652 115.364 52.9309 115.3 52.4C115.367 51.9126 115.261 51.4171 115 51L114.4 52L113.5 53.3L112.6 54.5L112 55.3C111.8 54 111.7 52.7 111.6 51.4H111.8C113.049 50.7029 114.033 49.6133 114.6 48.3C114.901 47.7032 115.104 47.0615 115.2 46.4C115.214 46.1335 115.214 45.8665 115.2 45.6C115.241 45.3685 115.241 45.1315 115.2 44.9L114.2 45.9L112.8 47.3L111.9 48.5L111.6 48.9C111.588 43.8664 112.539 38.8768 114.4 34.2L115.2 33.1C115.727 32.5262 116.295 31.9915 116.9 31.5C117.365 31.1318 117.77 30.6931 118.1 30.2C118.4 29.7 118.5 29.2 118.7 28.8C119.104 27.8828 119.342 26.9007 119.4 25.9C118.828 26.5615 118.191 27.1644 117.5 27.7C116.833 28.192 116.198 28.7264 115.6 29.3C115.054 29.8336 114.583 30.4392 114.2 31.1C113.914 31.6247 113.744 32.2042 113.7 32.8V33.8C112.8 35.9 108 49.1 112.9 63.6C114.398 67.9114 117.022 71.7437 120.5 74.7C119.549 74.3168 118.518 74.1792 117.5 74.3L115.9 74.5L114.1 74.6ZM125.4 84.2L126.4 84.6L127.7 84.8C128.491 84.952 129.295 85.019 130.1 85C130.814 84.9566 131.52 84.8222 132.2 84.6C132.786 84.4176 133.284 84.026 133.6 83.5C133.665 83.3275 133.66 83.1363 133.585 82.9678C133.51 82.7992 133.372 82.6671 133.2 82.6C132.3 82.1 131 82.5 130 82.8C129 83.1 126.8 83.8 125.3 84.2H125.4ZM179.6 58.2C179.933 57.7528 180.171 57.2424 180.3 56.7C180.346 56.4612 180.413 56.2269 180.5 56C180.6 55.7 181 55.5 181.1 55.3C181.209 54.9407 181.378 54.6025 181.6 54.3C181.074 54.304 180.558 54.4416 180.1 54.7H179.8C179.083 55.0084 178.41 55.412 177.8 55.9C177.205 56.4673 176.729 57.1471 176.4 57.9C176 58.8 175.8 59.8 175.4 60.8C176.433 60.3966 177.408 59.8586 178.3 59.2C178.748 58.929 179.153 58.5919 179.5 58.2H179.6ZM172.4 38.2C172.332 37.5951 172.127 37.0136 171.8 36.5C171.483 35.968 171.077 35.4944 170.6 35.1L168.8 33.8C168.372 33.4705 167.901 33.2013 167.4 33C167.783 33.9729 168.252 34.9098 168.8 35.8C169.083 36.3264 169.456 36.8 169.9 37.2L171.1 37.9L172.4 38.2ZM166.3 64.4C166.027 65.512 166.169 66.6854 166.7 67.7C167.015 68.1748 167.384 68.6111 167.8 69C168.18 68.7479 168.489 68.4039 168.7 68C168.962 67.5732 169.133 67.0964 169.2 66.6C169.267 66.0983 169.233 65.5883 169.1 65.1C168.88 64.4133 168.541 63.7704 168.1 63.2C167.759 62.7074 167.489 62.1687 167.3 61.6C167.098 62.0187 166.93 62.4536 166.8 62.9C166.535 63.3717 166.334 63.876 166.2 64.4H166.3ZM164.9 68C164.797 67.5904 164.664 67.1892 164.5 66.8C164.351 66.5544 164.249 66.2831 164.2 66C163.94 66.403 163.738 66.8406 163.6 67.3L163 68.7C162.798 69.1532 162.631 69.6212 162.5 70.1C162.354 70.5213 162.253 70.9571 162.2 71.4C162.183 71.6014 162.21 71.8039 162.28 71.9938C162.349 72.1837 162.458 72.3564 162.6 72.5C163 72.9 163.4 73.2 163.7 72.7L164.1 72.2C164.375 71.8052 164.578 71.3652 164.7 70.9C165.052 69.9745 165.122 68.9651 164.9 68ZM170.2 62.7C170.489 63.224 170.901 63.6701 171.4 64C171.617 63.5263 171.753 63.0191 171.8 62.5C171.881 61.9697 171.881 61.4303 171.8 60.9C171.712 60.3312 171.508 59.7866 171.2 59.3C170.785 58.7488 170.449 58.1431 170.2 57.5C170.156 57.3357 170.122 57.1687 170.1 57C169.812 57.3496 169.607 57.7598 169.5 58.2C169.306 58.6819 169.172 59.1856 169.1 59.7C169.06 60.2414 169.127 60.7853 169.299 61.3003C169.471 61.8153 169.743 62.291 170.1 62.7H170.2ZM172.4 44L173.6 44.2C173.5 42.9781 173.009 41.8208 172.2 40.9L170.7 39.5L169.4 38.3C169.426 38.8046 169.493 39.3063 169.6 39.8C169.679 40.3781 169.813 40.9473 170 41.5C170.205 42.0604 170.524 42.5721 170.937 43.0025C171.35 43.4329 171.848 43.7726 172.4 44ZM162 57.9C161.882 57.3912 161.601 56.9347 161.2 56.6C160.934 56.4345 160.634 56.3306 160.323 56.296C160.011 56.2614 159.696 56.2969 159.4 56.4C159.031 56.5681 158.704 56.8172 158.445 57.1288C158.185 57.4404 157.999 57.8066 157.9 58.2C157.769 58.4542 157.669 58.7226 157.6 59V59.7C156.8 65.7 152.5 68.8 144.7 69C136.9 69.2 135.3 61.6 135.2 61.4L134.6 59.2C134.031 57.0792 133.729 54.8957 133.7 52.7C133.651 52.1492 133.754 51.5955 134 51.1L134.4 50.6L134.9 50.1L135.5 49.9L136.1 49.7C136.476 49.5851 136.796 49.3359 137 49C136.851 48.7798 136.643 48.6064 136.4 48.5L135.7 48.1C135.021 47.8906 134.306 47.8225 133.6 47.9C133.6 42.6 134 37.6 135.5 33.7C135.788 32.7453 136.302 31.8741 136.998 31.1604C137.694 30.4466 138.553 29.9114 139.5 29.6C140.705 29.2751 141.953 29.1401 143.2 29.2C144.474 29.1463 145.75 29.247 147 29.5C148.955 29.9851 150.726 31.0273 152.1 32.5C152.761 33.1815 153.363 33.9174 153.9 34.7C154.413 35.5753 154.88 36.4765 155.3 37.4C155.739 38.2682 156.241 39.1037 156.8 39.9L157.7 41C157.874 41.2048 158.088 41.3724 158.329 41.4926C158.569 41.6129 158.832 41.6834 159.1 41.7C160.4 41.7 161.6 41.5 161.8 40.3C161.889 39.7257 161.82 39.138 161.6 38.6C161.532 38.336 161.376 38.103 161.158 37.9394C160.94 37.7758 160.673 37.6914 160.4 37.7V27.4C160.424 27.1673 160.424 26.9327 160.4 26.7L160 26.3H159.3C158.632 26.2387 157.959 26.2723 157.3 26.4C156.9 27.1 156.5 27.9 155.4 27.8H154.3L153.6 27.6L148.8 26C146.726 25.37 144.567 25.0663 142.4 25.1C140.78 25.1692 139.172 25.4038 137.6 25.8C135.578 26.3211 133.653 27.1653 131.9 28.3L130.4 29.5C127.439 32.0734 125.054 35.2423 123.4 38.8C122.122 41.6268 121.473 44.6977 121.5 47.8C120.761 47.7481 120.018 47.8156 119.3 48L118.6 48.4C118.343 48.5331 118.133 48.7427 118 49C118.034 49.1985 118.141 49.377 118.3 49.5H118.5L118.9 49.7C119.697 50.1804 120.379 50.8288 120.9 51.6L121.6 52.5C121.655 52.6617 121.688 52.8298 121.7 53C122.314 56.343 123.571 59.5352 125.4 62.4C125.977 63.3321 126.647 64.2032 127.4 65C143 81.5 157 69 159 66.5L160.3 64.5C160.867 63.5849 161.336 62.6129 161.7 61.6C162.141 60.4184 162.245 59.1373 162 57.9ZM133.4 25C136.298 23.8602 139.386 23.2832 142.5 23.3C145.567 23.1875 148.617 23.8044 151.4 25.1V24.6C148.618 23.3875 145.633 22.709 142.6 22.6C139.515 22.7292 136.474 23.3713 133.6 24.5V25H133.4ZM147.8 22.4C146.204 21.9405 144.559 21.672 142.9 21.6L142.5 13.2L142.1 21.6C139.218 21.7931 136.384 22.4342 133.7 23.5V24C136.563 22.8608 139.619 22.2837 142.7 22.3C145.735 22.1919 148.751 22.809 151.5 24.1V23.6C150.559 23.1701 149.59 22.8027 148.6 22.5L147.8 22.4ZM148.6 22.5L148 22.3L148.6 22.5ZM156.9 6C156.9 6 150.4 11.1 149.3 14C149.538 14.0256 149.768 14.1012 149.975 14.2218C150.182 14.3425 150.361 14.5054 150.5 14.7C148.5 16.5 150.3 18.4 149 19.9C147.814 19.6403 146.645 19.3063 145.5 18.9C143.8 16.7 147 16.7 144.9 14.6C145.255 14.1731 145.752 13.889 146.3 13.8C145.699 12.6793 145.197 11.5082 144.8 10.3C143.662 6.96012 142.891 3.50651 142.5 0C142.175 3.49928 141.471 6.95289 140.4 10.3C140.005 11.5089 139.503 12.6802 138.9 13.8C139.448 13.889 139.945 14.1731 140.3 14.6C138.3 16.7 141.4 16.7 139.7 18.9C138.555 19.3063 137.386 19.6403 136.2 19.9C134.9 18.5 136.7 16.6 134.7 14.7C134.839 14.5054 135.018 14.3425 135.225 14.2218C135.432 14.1012 135.662 14.0256 135.9 14C134.8 11.1 128.3 6 128.3 6C128.3 6 133.9 12.3 134.1 19.7C134.12 20.7703 134.053 21.8405 133.9 22.9C136.464 21.9107 139.159 21.3042 141.9 21.1L142.5 11L143.3 21.2C146.021 21.3855 148.692 22.0278 151.2 23.1C151.05 22.0066 150.983 20.9035 151 19.8C151.2 12.3 156.8 6.1 156.8 6.1L156.9 6Z" fill="black"/>
</svg>
