<svg width="337" height="86" viewBox="0 0 337 86" fill="none" xmlns="http://www.w3.org/2000/svg">
<path fill-rule="evenodd" clip-rule="evenodd" d="M22 74.2C22.2664 74.9987 22.6727 75.7436 23.2 76.4L23.5 76.9C23.9054 76.7145 24.2511 76.4198 24.4983 76.0489C24.7456 75.678 24.8847 75.2455 24.9 74.8C24.9214 73.7446 24.6441 72.7046 24.1 71.8C23.8647 71.3553 23.561 70.9504 23.2 70.6L22.5 70.1L21.7 69.8C21.9246 70.0505 22.0646 70.3654 22.1 70.7C22.1939 71.2165 22.1114 71.7771 22.0286 72.3403C21.935 72.9767 21.8409 73.6165 22 74.2ZM27.3 77.7C27.0314 77.1684 26.862 76.5923 26.8 76C26.7861 75.3938 26.8534 74.7884 27 74.2C27.0414 73.7343 27.0414 73.2657 27 72.8C27.3439 73.1268 27.7116 73.4276 28.1 73.7L29.1 74.8C29.4541 75.1907 29.7252 75.6491 29.8971 76.1476C30.069 76.646 30.138 77.1741 30.1 77.7C30.0532 78.2952 29.8829 78.8742 29.6 79.4C29.5007 79.5144 29.432 79.652 29.4 79.8L29.2 79.4L28.4 78.9C27.9186 78.6227 27.5345 78.2036 27.3 77.7ZM17.3 72.3C17.0253 71.9052 16.8222 71.4652 16.7 71C16.3476 70.0745 16.278 69.0651 16.5 68.1C16.603 67.6905 16.7367 67.2894 16.9 66.9C17.0491 66.6544 17.1508 66.3831 17.2 66.1C17.4601 66.503 17.6621 66.9406 17.8 67.4L18.4 68.8C18.6026 69.253 18.7698 69.7211 18.9 70.2C19.0457 70.6215 19.1463 71.0573 19.2 71.5C19.2166 71.7014 19.1895 71.9039 19.1205 72.0938C19.0514 72.2837 18.9421 72.4564 18.8 72.6C18.5 73.1 18.1 73.3 17.7 72.8L17.3 72.3ZM7.90264 44.0996L7.9 44.1V44.2C7.90059 44.1665 7.90147 44.133 7.90264 44.0996ZM7.90264 44.0996L9.1 43.9C9.63306 43.6613 10.1119 43.3166 10.5073 42.8868C10.9028 42.4569 11.2065 41.9511 11.4 41.4C11.5869 40.8473 11.7209 40.2781 11.8 39.7C11.9064 39.2061 11.9733 38.7045 12 38.2L10.6 39.4L9.1 40.8C8.36322 41.7472 7.94471 42.902 7.90264 44.0996ZM10.4 59.2C10.8134 58.6481 11.1499 58.0426 11.4 57.4V57.5C11.4158 57.3003 11.4158 57.0997 11.4 56.9C11.688 57.2496 11.8932 57.6598 12 58.1C12.1937 58.5819 12.328 59.0856 12.4 59.6C12.4402 60.1413 12.3725 60.6853 12.2009 61.2003C12.0292 61.7153 11.757 62.191 11.4 62.6C11.111 63.124 10.6992 63.5701 10.2 63.9C9.98265 63.4263 9.84739 62.9191 9.8 62.4C9.71903 61.8697 9.71903 61.3303 9.8 60.8C9.88824 60.2312 10.0925 59.6866 10.4 59.2ZM12.9 67.9C12.6377 67.4732 12.4674 66.9964 12.4 66.5V66.6C12.2864 66.0727 12.2864 65.5273 12.4 65C12.6203 64.3133 12.9587 63.6704 13.4 63.1C13.7403 62.6067 14.0095 62.0682 14.2 61.5C14.4024 61.9187 14.5696 62.3536 14.7 62.8C14.9635 63.2722 15.1652 63.7763 15.3 64.3C15.5731 65.412 15.4309 66.5854 14.9 67.6C14.5853 68.0748 14.2161 68.5111 13.8 68.9C13.4204 68.6479 13.1108 68.3039 12.9 67.9ZM1.3 47L2.1 47.6L3.7 48.7C4.35854 49.4104 4.83844 50.2673 5.1 51.2L5.3 52C5.3556 52.2296 5.38909 52.464 5.4 52.7C5.35851 53.0989 5.35851 53.5011 5.4 53.9C4.84045 53.6492 4.3049 53.3479 3.8 53C3.15133 52.4831 2.57901 51.8771 2.1 51.2C1.63651 50.5192 1.26654 49.7793 1 49C0.787888 48.4477 0.620679 47.8792 0.5 47.3C0.4 47.2 0.3 46.6 0.5 46.6L1.3 47ZM47.6 79.4C47.3171 78.8742 47.1468 78.2952 47.1 77.7V77.8C47.048 77.2578 47.1101 76.7108 47.2823 76.1941C47.4545 75.6774 47.7331 75.2025 48.1 74.8L49.1 73.7C49.4891 73.4285 49.8568 73.1276 50.2 72.8C50.1596 73.2658 50.1596 73.7342 50.2 74.2C50.3478 74.7882 50.4151 75.3937 50.4 76C50.338 76.5923 50.1686 77.1684 49.9 77.7C49.6655 78.2036 49.2814 78.6227 48.8 78.9L48 79.4L47.8 79.8C47.768 79.652 47.6993 79.5144 47.6 79.4ZM4.4 41.2C4.70794 41.6769 4.97553 42.1786 5.2 42.7C5.39882 43.1802 5.53331 43.6846 5.6 44.2C5.74672 44.7883 5.78065 45.3991 5.7 46C5.7 46.4 5.5 47.2 4.9 47.2C4.52917 47.1222 4.18472 46.95 3.9 46.7C3.44205 46.353 3.06642 45.9091 2.8 45.4C2.25587 44.3896 2.01294 43.2443 2.1 42.1C2.11812 41.5617 2.18505 41.0262 2.3 40.5C2.3279 39.9956 2.39477 39.4941 2.5 39C2.62319 39.1143 2.72481 39.2497 2.8 39.4L3.3 39.9L4.4 41.2ZM12.8 33.7C13.2271 33.3694 13.6984 33.1002 14.2 32.9C13.7801 33.8422 13.2782 34.7457 12.7 35.6C12.4165 36.1264 12.0444 36.6 11.6 37L10.4 37.7L9.2 38.1C9.26803 37.4951 9.47324 36.9136 9.8 36.4C10.1168 35.868 10.5227 35.3944 11 35L12.8 33.7ZM7.3 33.5C7.47644 33.9189 7.61045 34.3544 7.7 34.8C7.76889 35.7185 7.63224 36.6409 7.3 37.5C7.2364 37.818 7.01106 38.2572 6.8554 38.5607C6.76627 38.7344 6.7 38.8636 6.7 38.9C6.7 38.9131 6.70172 38.9383 6.70403 38.9721C6.71935 39.1961 6.76065 39.8 6.5 39.8C6.11244 39.6521 5.79234 39.3675 5.6 39C5.30849 38.6256 5.13449 38.1732 5.1 37.7C5.05779 37.1646 5.09146 36.626 5.2 36.1C5.34003 35.6242 5.50696 35.1568 5.7 34.7C5.82923 34.2401 5.92943 33.7725 6 33.3C6.02419 33.2274 6.04253 33.1314 6.0621 33.029C6.12341 32.7081 6.19677 32.3242 6.5 32.4C6.71585 32.5002 6.90258 32.6539 7.04256 32.8463C7.18254 33.0388 7.27114 33.2638 7.3 33.5ZM55.2 74.3C54.9336 75.0987 54.5273 75.8436 54 76.5L53.7 77C53.2946 76.8145 52.9489 76.5198 52.7017 76.1489C52.4544 75.778 52.3153 75.3455 52.3 74.9C52.2786 73.8446 52.5559 72.8046 53.1 71.9C53.3366 71.4562 53.6402 71.0514 54 70.7L54.7 70.2L55.5 69.9C55.2753 70.1505 55.1354 70.4654 55.1 70.8C55.0061 71.3165 55.0886 71.8771 55.1714 72.4403C55.265 73.0767 55.3591 73.7165 55.2 74.3ZM75 61.4C74.6335 61.7873 74.39 62.2745 74.3 62.8L73.6 64.2C73.2951 64.8557 72.8094 65.4107 72.2 65.8L71.2 66.3L69.9 66.6H68.2C68.3276 66.415 68.4286 66.2131 68.5 66L69 65.2C69.2579 64.7136 69.596 64.2741 70 63.9L71.2 62.8L72.7 62.1L74 61.7L75 61.4ZM49.6 84.5C49.0142 84.3176 48.5159 83.926 48.2 83.4C48.1697 83.3081 48.1587 83.211 48.1677 83.1147C48.1768 83.0184 48.2058 82.925 48.2527 82.8404C48.2997 82.7558 48.3637 82.6819 48.4407 82.6233C48.5177 82.5648 48.606 82.5228 48.7 82.5C49.3808 81.9894 50.134 82.203 51.2678 82.5245C51.4663 82.5808 51.6765 82.6404 51.9 82.7C52.65 82.9 53.4 83.15 54.15 83.4C54.9 83.65 55.65 83.9 56.4 84.1L55.4 84.5L54.1 84.7C53.3094 84.852 52.5048 84.919 51.7 84.9C50.9858 84.8567 50.2801 84.7222 49.6 84.5ZM70.9 69.4C70.2026 70.2208 69.3539 70.8998 68.4 71.4L66.5 71.9H64.5C64.8254 71.2305 65.3053 70.6478 65.9 70.2L67.3 69.2C67.8542 68.8161 68.4603 68.513 69.1 68.3L70.9 67.9H72.3L71.6 68.6L70.9 69.4ZM76 47L76.8 46.6V46.7C76.8906 46.7 76.8991 46.8026 76.9092 46.9241C76.9214 47.0709 76.9359 47.2453 77.1 47.3C76.9802 47.8794 76.813 48.448 76.6 49C76.3335 49.7793 75.9635 50.5192 75.5 51.2C75.021 51.8771 74.4487 52.4831 73.8 53C73.2951 53.3479 72.7596 53.6492 72.2 53.9C72.2408 53.501 72.2408 53.099 72.2 52.7C72.2096 52.4639 72.2431 52.2294 72.3 52L72.5 51.2C72.7615 50.2673 73.2415 49.4104 73.9 48.7L75.2 47.6L76 47ZM74.9 40.4C75.0144 40.9263 75.0813 41.4618 75.1 42C75.1375 43.1205 74.8604 44.229 74.3 45.2C74.0336 45.7091 73.658 46.153 73.2 46.5C72.9153 46.75 72.5708 46.9222 72.2 47C71.7 47 71.5 46.2 71.4 45.8C71.3194 45.1991 71.3533 44.5883 71.5 44C71.6059 43.5138 71.774 43.0433 72 42.6C72.2232 42.078 72.4908 41.5761 72.8 41.1L73.9 39.8L74.4 39.3C74.4752 39.1497 74.5768 39.0143 74.7 38.9C74.8052 39.3941 74.8721 39.8956 74.9 40.4ZM0.5 55.3C0.391424 54.9407 0.222331 54.6025 0 54.3C0.491805 54.3203 0.971709 54.4574 1.4 54.7H1.7C2.4175 55.0084 3.09021 55.412 3.7 55.9C4.2946 56.4673 4.77049 57.1471 5.1 57.9C5.37472 58.4494 5.52868 58.9989 5.678 59.5317C5.80045 59.9687 5.91977 60.3945 6.1 60.8C5.06714 60.3966 4.09205 59.8586 3.2 59.2C2.7528 58.9278 2.34841 58.5908 2 58.2C1.66711 57.7528 1.42892 57.2424 1.3 56.7C1.25475 56.4611 1.1878 56.2268 1.1 56C1.05 55.9 0.949998 55.8 0.837497 55.6875C0.724998 55.575 0.599999 55.45 0.5 55.3ZM71.3 34.8C71.4936 35.2566 71.6606 35.724 71.8 36.2C71.8193 36.7735 71.7519 37.3466 71.6 37.9C71.5655 38.3732 71.3915 38.8256 71.1 39.2C70.9077 39.5675 70.5876 39.8521 70.2 40C70.1938 40 70.1878 39.9998 70.182 39.9995C71.4113 45.6454 72.2122 54.2903 69.1 63.5C67.6015 67.8114 64.9776 71.6437 61.5 74.6C62.4505 74.2168 63.4823 74.0792 64.5 74.2L66.1 74.4L67.9 74.6C67.6516 74.5926 67.407 74.6625 67.2 74.8L66.2 75.3C65.8234 75.5092 65.4818 75.771 65.1386 76.034C64.6616 76.3995 64.1815 76.7674 63.6 77C63.0014 77.2641 62.3543 77.4004 61.7 77.4C61.1271 77.4073 60.5668 77.2322 60.1 76.9C60.0123 76.816 59.9425 76.7151 59.8948 76.6034C59.8471 76.4917 59.8225 76.3715 59.8225 76.25C59.8225 76.1285 59.8471 76.0083 59.8948 75.8966C59.9425 75.7849 60.0123 75.684 60.1 75.6C58.7061 76.7027 57.2357 77.7053 55.7 78.6H57.2L59.7 79.3L62.2 79.8L59.7 80.8L58.1 81.2H56.4C55.6878 81.2082 54.9901 80.9988 54.4 80.6C54.2227 80.4179 54.1078 80.1842 54.0718 79.9326C54.0359 79.681 54.0808 79.4245 54.2 79.2C48.3 82.3 40.5 84.4 38.8 84.4C37.1 84.4 29.3 82.3 23.4 79.2C23.5192 79.4245 23.5641 79.681 23.5281 79.9326C23.4922 80.1842 23.3773 80.4179 23.2 80.6C22.6099 80.9988 21.9122 81.2082 21.2 81.2H19.5L17.9 80.8L15.4 79.8L17.9 79.3L20.4 78.6H21.9C20.3646 77.7047 18.8943 76.7022 17.5 75.6C17.5877 75.684 17.6575 75.7849 17.7052 75.8966C17.7529 76.0083 17.7775 76.1285 17.7775 76.25C17.7775 76.3715 17.7529 76.4917 17.7052 76.6034C17.6575 76.7151 17.5877 76.816 17.5 76.9C17.0332 77.2322 16.4729 77.4073 15.9 77.4C15.2457 77.4004 14.5986 77.2641 14 77C13.4185 76.7674 12.9384 76.3995 12.4614 76.034C12.1182 75.771 11.7766 75.5092 11.4 75.3L10.4 74.8C10.193 74.6625 9.94841 74.5926 9.7 74.6L11.5 74.5L13.1 74.3C14.1177 74.1792 15.1495 74.3168 16.1 74.7C12.6224 71.7437 9.9985 67.9114 8.5 63.6C3.6 49.1 8.4 35.9 9.3 33.8V32.8C9.34387 32.2042 9.51433 31.6247 9.8 31.1C10.1827 30.4392 10.6537 29.8336 11.2 29.3C11.7983 28.7264 12.433 28.192 13.1 27.7C13.7914 27.1644 14.4279 26.5615 15 25.9C14.9416 26.9007 14.7045 27.8828 14.3 28.8C14.219 28.962 14.1544 29.1405 14.0862 29.3287C13.9861 29.6051 13.8785 29.9026 13.7 30.2C13.3701 30.6931 12.9652 31.1318 12.5 31.5C11.8954 31.9915 11.3272 32.5262 10.8 33.1L10 34.2C8.13855 38.8768 7.18816 43.8664 7.2 48.9L7.5 48.5L8.4 47.3L9.8 45.9L10.8 44.9C10.8411 45.1315 10.8411 45.3685 10.8 45.6C10.814 45.8665 10.814 46.1335 10.8 46.4C10.7037 47.0615 10.5011 47.7032 10.2 48.3C9.63317 49.6133 8.649 50.7029 7.4 51.4H7.2C7.3 52.7 7.4 54 7.6 55.3L8.2 54.5L9.1 53.3L10 52L10.6 51C10.8609 51.4171 10.9671 51.9126 10.9 52.4C10.9643 52.9309 10.9977 53.4652 11 54C11.0218 54.5923 10.8836 55.1795 10.6 55.7C10.3103 56.1323 9.92526 56.4924 9.47449 56.7525C9.02373 57.0125 8.51927 57.1656 8 57.2C8.38772 59.3015 8.92236 61.3733 9.6 63.4C14.7 78.6 36.6 82.6 38.6 82.6C40.6 82.6 62.4 78.6 67.6 63.4C68.278 61.3734 68.8126 59.3016 69.2 57.2C68.6807 57.1656 68.1763 57.0125 67.7255 56.7525C67.2747 56.4924 66.8897 56.1323 66.6 55.7C66.3164 55.1795 66.1783 54.5923 66.2 54C66.2025 53.4652 66.2359 52.931 66.3 52.4C66.2329 51.9126 66.3391 51.4171 66.6 51L67.2 52L68.5 53.2L69.4 54.4L70 55.2C70.2 53.9 70.3 52.6 70.4 51.3H70.1C68.851 50.6029 67.8668 49.5133 67.3 48.2C66.9989 47.6032 66.7963 46.9615 66.7 46.3C66.6856 46.0335 66.6856 45.7665 66.7 45.5C66.6608 45.2683 66.6608 45.0317 66.7 44.8L67.7 45.8L69.1 47.2L70 48.4L70.3 48.8C70.3118 43.7663 69.3614 38.7768 67.5 34.1L66.7 33C66.1731 32.426 65.6049 31.8912 65 31.4C64.5703 31.0242 64.1995 30.586 63.9 30.1C63.7 29.7 63.5 29.2 63.3 28.7C62.8955 27.7828 62.6584 26.8007 62.6 25.8C63.1721 26.4615 63.8086 27.0644 64.5 27.6C65.1669 28.0922 65.8015 28.6266 66.4 29.2C66.9463 29.7336 67.4173 30.3392 67.8 31C68.0829 31.5258 68.2532 32.1048 68.3 32.7V33.7C68.4781 34.1354 68.809 34.9977 69.1871 36.2132C69.178 35.7741 69.2156 35.3339 69.3 34.9C69.3882 34.454 69.5223 34.0184 69.7 33.6C69.7289 33.3638 69.8175 33.1388 69.9574 32.9463C70.0974 32.7538 70.2841 32.6002 70.5 32.5C70.9 32.4 71 33.1 71 33.4C71.0713 33.8724 71.1715 34.3399 71.3 34.8ZM70.0272 39.313C70.0229 39.2448 70.0147 39.1735 70 39.1C69.9792 38.9963 69.9456 38.8968 69.9044 38.7999C69.9455 38.9676 69.9865 39.1387 70.0272 39.313ZM2.9 62.9C2.81002 62.3745 2.56645 61.8873 2.2 61.5L3.1 61.6L4.4 62L5.9 62.7C6.3355 63.026 6.73747 63.3944 7.1 63.8C7.50545 64.1728 7.84372 64.6125 8.1 65.1L8.6 65.9C8.67259 66.1126 8.7735 66.3144 8.9 66.5H7.2L5.9 66.2L4.9 65.7C4.35451 65.3517 3.90704 64.8698 3.6 64.3L2.9 62.9ZM5.1 68.1L5 68V68.1H5.1ZM5.7 68.7L5.1 68.1H6.4L8.2 68.5C8.83969 68.713 9.44578 69.0161 10 69.4L11.4 70.4C11.9947 70.8478 12.4745 71.4305 12.8 72.1H10.8L8.9 71.5C7.94615 70.9998 7.09741 70.3208 6.4 69.5L5.7 68.7ZM22 84.6L21 84.2H20.9C22.0032 83.9058 23.4849 83.4494 24.5895 83.1091C24.9869 82.9867 25.3354 82.8794 25.6 82.8L25.638 82.7886C26.6327 82.4901 27.9113 82.1063 28.8 82.6C28.9718 82.6671 29.1102 82.7992 29.1851 82.9678C29.2599 83.1363 29.2653 83.3275 29.2 83.5C28.8841 84.026 28.3858 84.4176 27.8 84.6C27.1199 84.8222 26.4142 84.9566 25.7 85C24.8952 85.019 24.0906 84.952 23.3 84.8L22 84.6ZM75.9 56.7C75.7711 57.2424 75.5329 57.7528 75.2 58.2H75.1C74.7526 58.5919 74.3481 58.929 73.9 59.2C73.0079 59.8586 72.0329 60.3966 71 60.8C71.1857 60.3357 71.3283 59.8713 71.4679 59.417C71.6289 58.8929 71.7857 58.3821 72 57.9C72.3295 57.1471 72.8054 56.4673 73.4 55.9C74.0098 55.412 74.6825 55.0084 75.4 54.7H75.7C76.158 54.4416 76.6742 54.304 77.2 54.3C76.9777 54.6025 76.8086 54.9407 76.7 55.3C76.6579 55.3841 76.5628 55.4683 76.4592 55.5599C76.3165 55.686 76.1579 55.8262 76.1 56C76.0127 56.2269 75.9458 56.4612 75.9 56.7ZM67.4 36.5C67.7268 37.0136 67.932 37.5951 68 38.2L66.7 37.9L65.5 37.2C65.0556 36.8 64.6835 36.3264 64.4 35.8C63.8516 34.9098 63.383 33.9729 63 33C63.5011 33.2013 63.9721 33.4705 64.4 33.8L66.2 35.1C66.6773 35.4944 67.0832 35.968 67.4 36.5ZM62.3 67.7C61.7691 66.6854 61.6269 65.512 61.9 64.4H61.8C61.9337 63.876 62.1354 63.3717 62.4 62.9C62.5304 62.4536 62.6976 62.0187 62.9 61.6C63.0892 62.1687 63.3586 62.7074 63.7 63.2C64.1413 63.7704 64.4797 64.4133 64.7 65.1C64.8329 65.5883 64.8669 66.0983 64.8 66.6C64.7325 67.0964 64.5622 67.5732 64.3 68C64.0892 68.4039 63.7796 68.7479 63.4 69C62.9839 68.6111 62.6147 68.1748 62.3 67.7ZM60.1 66.8C60.2637 67.1892 60.3974 67.5904 60.5 68C60.722 68.9651 60.6524 69.9745 60.3 70.9C60.1778 71.3652 59.9747 71.8052 59.7 72.2L59.3 72.7C59 73.2 58.6 72.9 58.2 72.5C58.0579 72.3564 57.9486 72.1837 57.8795 71.9938C57.8105 71.8039 57.7833 71.6014 57.8 71.4C57.8529 70.9571 57.9535 70.5213 58.1 70.1C58.2306 69.6212 58.3978 69.1532 58.6 68.7L59.2 67.3C59.3379 66.8406 59.5399 66.403 59.8 66C59.8492 66.2831 59.9509 66.5544 60.1 66.8ZM67 64C66.5008 63.6701 66.089 63.224 65.8 62.7H65.7C65.343 62.291 65.0708 61.8153 64.8991 61.3003C64.7275 60.7853 64.6598 60.2414 64.7 59.7C64.772 59.1856 64.9063 58.6819 65.1 58.2C65.2068 57.7598 65.412 57.3496 65.7 57C65.7224 57.1687 65.7558 57.3357 65.8 57.5C66.049 58.1431 66.3855 58.7488 66.8 59.3C67.1075 59.7866 67.3118 60.3312 67.4 60.9C67.481 61.4303 67.481 61.9697 67.4 62.5C67.3526 63.0191 67.2173 63.5263 67 64ZM69.2 44.2L68 44C67.4484 43.7726 66.9502 43.4329 66.537 43.0025C66.1238 42.5721 65.8047 42.0604 65.6 41.5C65.4131 40.9473 65.2791 40.3781 65.2 39.8C65.0927 39.3063 65.0258 38.8046 65 38.3L66.3 39.5L67.8 40.9C68.6094 41.8208 69.1004 42.9781 69.2 44.2ZM56.8 56.6C57.201 56.9347 57.4819 57.3912 57.6 57.9C57.8451 59.1373 57.7412 60.4184 57.3 61.6C56.936 62.6129 56.4667 63.5849 55.9 64.5L54.6 66.5C52.6 69 38.6 81.5 23 65C22.2471 64.2032 21.577 63.3321 21 62.4C19.1708 59.5352 17.9143 56.343 17.3 53C17.2881 52.8298 17.2545 52.6617 17.2 52.5L16.5 51.6C15.9794 50.8288 15.2969 50.1804 14.5 49.7L14.1 49.5H13.9C13.7407 49.377 13.6335 49.1985 13.6 49C13.7331 48.7427 13.9427 48.5331 14.2 48.4L14.9 48C15.6178 47.8156 16.3607 47.7481 17.1 47.8C17.0735 44.6977 17.7218 41.6268 19 38.8C20.6535 35.2423 23.0387 32.0734 26 29.5L27.5 28.3C29.2531 27.1653 31.1778 26.3211 33.2 25.8C34.772 25.4038 36.3803 25.1692 38 25.1C40.1671 25.0663 42.3262 25.37 44.4 26L49.2 27.6L49.9 27.8H51C52.0507 27.8955 52.4628 27.1698 52.8462 26.4946C52.8642 26.4629 52.8821 26.4313 52.9 26.4C53.5586 26.2723 54.232 26.2387 54.9 26.3H55.6L56 26.7C56.0241 26.9327 56.0241 27.1673 56 27.4V37.7C56.2725 37.6914 56.5398 37.7758 56.7579 37.9394C56.9761 38.103 57.132 38.336 57.2 38.6C57.4198 39.138 57.4889 39.7257 57.4 40.3C57.2 41.5 56 41.7 54.7 41.7C54.4316 41.6834 54.1692 41.6129 53.9287 41.4926C53.6881 41.3724 53.4743 41.2048 53.3 41L52.4 39.9C51.8407 39.1037 51.3394 38.2682 50.9 37.4C50.4801 36.4765 50.0128 35.5753 49.5 34.7C48.9628 33.9174 48.3607 33.1815 47.7 32.5C46.3263 31.0273 44.5546 29.9851 42.6 29.5C41.3501 29.247 40.0741 29.1463 38.8 29.2C37.5534 29.1401 36.305 29.2751 35.1 29.6C34.1527 29.9114 33.2945 30.4466 32.5981 31.1604C31.9018 31.8741 31.3879 32.7453 31.1 33.7C29.6 37.6 29.2 42.6 29.2 47.9C29.9063 47.8225 30.621 47.8906 31.3 48.1L32 48.5C32.2434 48.6064 32.4515 48.7798 32.6 49C32.3961 49.3359 32.0758 49.5851 31.7 49.7L31.1 49.9L30.5 50.1L30 50.6L29.6 51.1C29.3544 51.5955 29.2506 52.1492 29.3 52.7C29.3285 54.8957 29.6308 57.0792 30.2 59.2L30.8 61.4C30.8069 61.4137 30.8208 61.4623 30.8433 61.5408C31.1488 62.6064 33.0353 69.1863 40.3 69C48.1 68.8 52.4 65.7 53.2 59.7V59C53.2688 58.7226 53.3694 58.4542 53.5 58.2C53.5987 57.8066 53.7849 57.4404 54.0446 57.1288C54.3042 56.8172 54.6308 56.5681 55 56.4C55.2959 56.2969 55.6112 56.2614 55.9227 56.296C56.2341 56.3306 56.5339 56.4345 56.8 56.6ZM29.2 24.9223C29.1332 24.9479 29.0666 24.9738 29 25H29.2V24.9223ZM29.2 24.9223C32.0396 23.834 35.0577 23.2836 38.1 23.3C41.1673 23.1875 44.2175 23.8044 47 25.1V24.6C44.218 23.3875 41.2328 22.709 38.2 22.6C35.1153 22.7292 32.0737 23.3713 29.2 24.5V24.9223ZM38.5 21.6C40.1592 21.672 41.804 21.9405 43.4 22.4L44.2 22.5C45.1897 22.8027 46.1585 23.1701 47.1 23.6V24.1C44.3515 22.809 41.3347 22.1919 38.3 22.3C35.2187 22.2837 32.163 22.8608 29.3 24V23.5C31.9843 22.4342 34.8183 21.7931 37.7 21.6L38.1 13.2L38.5 21.6ZM44.9 14C46 11.1 52.5 6 52.5 6L52.4 6.1C52.4 6.1 46.8 12.3 46.6 19.8C46.5834 20.9035 46.6503 22.0066 46.8 23.1C44.292 22.0278 41.6213 21.3855 38.9 21.2L38.1 11L37.5 21.1C34.7594 21.3042 32.0639 21.9107 29.5 22.9C29.6531 21.8405 29.72 20.7703 29.7 19.7C29.5 12.3 23.9 6 23.9 6C23.9 6 30.4 11.1 31.5 14C31.262 14.0256 31.032 14.1012 30.8252 14.2218C30.6184 14.3425 30.4394 14.5054 30.3 14.7C31.4057 15.7504 31.35 16.8008 31.2987 17.7668C31.2572 18.548 31.2187 19.274 31.8 19.9C32.9865 19.6403 34.1554 19.3063 35.3 18.9C36.1334 17.8214 35.8132 17.2716 35.5058 16.7439C35.1862 16.1953 34.8805 15.6705 35.9 14.6C35.5452 14.1731 35.0479 13.889 34.5 13.8C35.103 12.6802 35.605 11.5089 36 10.3C37.0711 6.95289 37.7752 3.49928 38.1 0C38.4913 3.50651 39.2625 6.96012 40.4 10.3C40.797 11.5082 41.2989 12.6793 41.9 13.8C41.3521 13.889 40.8548 14.1731 40.5 14.6C41.5778 15.6778 41.2595 16.2024 40.9241 16.7553C40.606 17.2795 40.2725 17.8291 41.1 18.9C42.2446 19.3063 43.4135 19.6403 44.6 19.9C45.1823 19.2281 45.1426 18.476 45.1011 17.6885C45.0499 16.7179 44.9959 15.6937 46.1 14.7C45.9605 14.5054 45.7816 14.3425 45.5748 14.2218C45.368 14.1012 45.138 14.0256 44.9 14ZM107.763 37.2204H116.62C118.729 37.2204 119.784 38.4435 119.784 40.8898V47.0898H116.114V41.0163H108.396V64.8041H116.114V57.8449H119.784V64.9306C119.784 67.3769 118.729 68.6 116.62 68.6H107.763C105.654 68.6 104.6 67.3769 104.6 64.9306V40.8898C104.6 38.4435 105.654 37.2204 107.763 37.2204ZM129.527 64.8041L137.878 64.551V37.2204H141.42V68.6H137.751V67.7143L133.322 68.3469L128.894 68.7265C126.869 68.8109 125.857 67.6721 125.857 65.3102V37.2204H129.527V64.8041ZM151.543 68.6H147.873V18.2408H151.543V68.6ZM159.261 27.4776H162.931V37.2204H167.739V41.0163H162.931V64.8041H167.739V68.6H162.424C160.316 68.6 159.261 67.3769 159.261 64.9306V41.0163H155.971V37.2204H159.261V27.4776ZM176.09 64.8041L184.441 64.551V37.2204H188.11V68.6H184.314V67.7143L179.886 68.3469L175.457 68.7265C173.433 68.8109 172.42 67.6721 172.42 65.3102V37.2204H176.09V64.8041ZM201.649 37.4735L205.445 37.0939C207.469 37.0939 208.439 38.2327 208.355 40.5102V47.5959H204.686V41.1429L197.853 41.3959V68.6H194.057V37.2204H197.853V38.1061L201.649 37.4735ZM216.453 37.3469H225.437V37.2204C227.546 37.2204 228.6 38.4435 228.6 40.8898V52.0245L227.335 53.5429H216.959V64.9306H224.931V59.2367H228.6V65.0571C228.6 67.5034 227.546 68.7265 225.437 68.7265H216.453C214.344 68.7265 213.29 67.5034 213.29 65.0571V41.0163C213.29 38.5701 214.344 37.3469 216.453 37.3469ZM216.959 50.2531H224.931L225.057 50.3796V40.8898H216.959V50.2531ZM259.094 37.3469H263.143L255.171 51.2653L263.649 68.6H259.6L252.008 52.6571V68.6H248.212V18.2408H252.008V50.2531L259.094 37.3469ZM271.494 68.6H267.824V37.2204H271.494V68.6ZM271.62 30.3878H267.824V24.9469H271.62V30.3878ZM286.045 37.4735L290.473 37.0939C292.582 37.0939 293.637 38.2327 293.637 40.5102V68.6H289.841V41.1429L281.616 41.3959V68.6H277.82V37.2204H281.616V38.1061L286.045 37.4735ZM304.771 37.0939L311.478 38.1061H311.604V37.2204H315.273V76.698C315.273 79.1442 314.219 80.3673 312.11 80.3673H303.253C301.06 80.3673 299.963 78.849 299.963 75.8122V72.649H303.633V76.8245H311.478V68.6H305.278C304.484 68.6155 303.697 68.4531 302.974 68.1247C302.252 67.7962 301.612 67.3101 301.102 66.702C299.978 65.3578 299.392 63.6449 299.457 61.8939V43.6735C299.399 41.9832 299.936 40.3261 300.975 38.9918C301.414 38.3988 301.986 37.9178 302.646 37.588C303.306 37.2582 304.034 37.0889 304.771 37.0939ZM306.29 64.8041H311.478V41.1429L306.29 40.7633C304.265 40.7633 303.253 41.9864 303.253 44.4327V61.1347C303.253 63.581 304.265 64.8041 306.29 64.8041ZM324.763 46.3306L334.633 55.5673H334.759C335.2 56.0145 335.541 56.5504 335.759 57.1394C335.978 57.7284 336.068 58.3571 336.024 58.9837V64.9306C336.024 67.3769 334.97 68.6 332.861 68.6H324.257C322.148 68.6 321.094 67.3769 321.094 64.9306V57.8449H324.763V64.8041H332.355V58.6041L322.612 49.3673C322.158 48.9507 321.799 48.4413 321.559 47.8737C321.319 47.3061 321.203 46.6936 321.22 46.0776V40.8898C321.22 38.4435 322.275 37.2204 324.384 37.2204H332.861C334.97 37.2204 336.024 38.4435 336.024 40.8898V47.2163H332.355V41.0163H324.763V46.3306Z" fill="white"/>
</svg>
